<svg t="1685350266739" class="icon" viewBox="0 0 1024 1024" version="1.1" xmlns="http://www.w3.org/2000/svg" p-id="21330" width="20" height="20"><path d="M320 768A234.666667 234.666667 0 0 1 85.333333 533.333333 234.666667 234.666667 0 0 1 320 298.666667H768a170.666667 170.666667 0 0 1 170.666667 170.666666 170.666667 170.666667 0 0 1-170.666667 170.666667H405.333333A106.666667 106.666667 0 0 1 298.666667 533.333333 106.666667 106.666667 0 0 1 405.333333 426.666667H725.333333v64H405.333333a42.666667 42.666667 0 0 0-42.666666 42.666666 42.666667 42.666667 0 0 0 42.666666 42.666667H768a106.666667 106.666667 0 0 0 106.666667-106.666667A106.666667 106.666667 0 0 0 768 362.666667H320a170.666667 170.666667 0 0 0-170.666667 170.666666 170.666667 170.666667 0 0 0 170.666667 170.666667H725.333333V768H320z" fill="" p-id="21331"></path></svg>