<svg t="1685350182573" class="icon" viewBox="0 0 1024 1024" version="1.1" xmlns="http://www.w3.org/2000/svg" p-id="20913" width="20" height="20"><path d="M512 341.333333a170.666667 170.666667 0 0 1 170.666667 170.666667 170.666667 170.666667 0 0 1-170.666667 170.666667 170.666667 170.666667 0 0 1-170.666667-170.666667 170.666667 170.666667 0 0 1 170.666667-170.666667m-381.866667 213.333334H42.666667v-85.333334h87.466666C149.333333 291.413333 291.413333 149.333333 469.333333 130.133333V42.666667h85.333334v87.466666c177.92 19.2 320 161.28 339.2 339.2H981.333333v85.333334h-87.466666c-19.2 177.92-161.28 320-339.2 339.2V981.333333h-85.333334v-87.466666C291.413333 874.666667 149.333333 732.586667 130.133333 554.666667M512 213.333333a298.666667 298.666667 0 0 0-298.666667 298.666667 298.666667 298.666667 0 0 0 298.666667 298.666667 298.666667 298.666667 0 0 0 298.666667-298.666667 298.666667 298.666667 0 0 0-298.666667-298.666667z" fill="" p-id="20914"></path></svg>